<svg width="24" height="24" viewBox="0 0 24 24" fill="none" xmlns="http://www.w3.org/2000/svg">
<g id="material-symbols:archive-rounded">
<path id="Vector" d="M5 21C4.45 21 3.97933 20.8043 3.588 20.413C3.19667 20.0217 3.00067 19.5507 3 19V6.52501C3 6.29167 3.03767 6.06667 3.113 5.85001C3.18833 5.63334 3.30067 5.43334 3.45 5.25001L4.7 3.72501C4.88333 3.49167 5.11233 3.31234 5.387 3.18701C5.66167 3.06167 5.94933 2.99934 6.25 3.00001H17.75C18.05 3.00001 18.3377 3.06267 18.613 3.18801C18.8883 3.31334 19.1173 3.49234 19.3 3.72501L20.55 5.25001C20.7 5.43334 20.8127 5.63334 20.888 5.85001C20.9633 6.06667 21.0007 6.29167 21 6.52501V19C21 19.55 20.8043 20.021 20.413 20.413C20.0217 20.805 19.5507 21.0007 19 21H5ZM5.4 6.00001H18.6L17.75 5.00001H6.25L5.4 6.00001ZM12 10C11.7167 10 11.4793 10.096 11.288 10.288C11.0967 10.48 11.0007 10.7173 11 11V14.2L10.1 13.3C9.91667 13.1167 9.68333 13.025 9.4 13.025C9.11667 13.025 8.88333 13.1167 8.7 13.3C8.51667 13.4833 8.425 13.7167 8.425 14C8.425 14.2833 8.51667 14.5167 8.7 14.7L11.3 17.3C11.5 17.5 11.7333 17.6 12 17.6C12.2667 17.6 12.5 17.5 12.7 17.3L15.3 14.7C15.4833 14.5167 15.575 14.2833 15.575 14C15.575 13.7167 15.4833 13.4833 15.3 13.3C15.1167 13.1167 14.8833 13.025 14.6 13.025C14.3167 13.025 14.0833 13.1167 13.9 13.3L13 14.2V11C13 10.7167 12.904 10.4793 12.712 10.288C12.52 10.0967 12.2827 10.0007 12 10Z" fill="#1E1E1E"/>
</g>
</svg>
