<svg width="30" height="30" viewBox="0 0 30 30" fill="none" xmlns="http://www.w3.org/2000/svg">
<g id="Frame">
<path id="Vector" d="M13.5312 27.5C12.9687 27.5 12.4843 27.3125 12.0781 26.9375C11.6718 26.5625 11.4271 26.1042 11.3437 25.5625L11.0625 23.5C10.7916 23.3958 10.5364 23.2708 10.2969 23.125C10.0573 22.9792 9.82289 22.8229 9.59373 22.6562L7.65623 23.4688C7.13539 23.6979 6.61456 23.7188 6.09373 23.5312C5.57289 23.3438 5.16664 23.0104 4.87498 22.5312L3.40623 19.9688C3.11456 19.4896 3.03123 18.9792 3.15623 18.4375C3.28123 17.8958 3.56248 17.4479 3.99998 17.0938L5.65623 15.8438C5.63539 15.6979 5.62498 15.5573 5.62498 15.4219V14.5781C5.62498 14.4427 5.63539 14.3021 5.65623 14.1562L3.99998 12.9062C3.56248 12.5521 3.28123 12.1042 3.15623 11.5625C3.03123 11.0208 3.11456 10.5104 3.40623 10.0312L4.87498 7.46875C5.16664 6.98958 5.57289 6.65625 6.09373 6.46875C6.61456 6.28125 7.13539 6.30208 7.65623 6.53125L9.59373 7.34375C9.82289 7.17708 10.0625 7.02083 10.3125 6.875C10.5625 6.72917 10.8125 6.60417 11.0625 6.5L11.3437 4.4375C11.4271 3.89583 11.6718 3.4375 12.0781 3.0625C12.4843 2.6875 12.9687 2.5 13.5312 2.5H16.4687C17.0312 2.5 17.5156 2.6875 17.9218 3.0625C18.3281 3.4375 18.5729 3.89583 18.6562 4.4375L18.9375 6.5C19.2083 6.60417 19.4635 6.72917 19.7031 6.875C19.9427 7.02083 20.1771 7.17708 20.4062 7.34375L22.3437 6.53125C22.8646 6.30208 23.3854 6.28125 23.9062 6.46875C24.4271 6.65625 24.8333 6.98958 25.125 7.46875L26.5937 10.0312C26.8854 10.5104 26.9687 11.0208 26.8437 11.5625C26.7187 12.1042 26.4375 12.5521 26 12.9062L24.3437 14.1562C24.3646 14.3021 24.375 14.4427 24.375 14.5781V15.4219C24.375 15.5573 24.3541 15.6979 24.3125 15.8438L25.9687 17.0938C26.4062 17.4479 26.6875 17.8958 26.8125 18.4375C26.9375 18.9792 26.8541 19.4896 26.5625 19.9688L25.0625 22.5312C24.7708 23.0104 24.3646 23.3438 23.8437 23.5312C23.3229 23.7188 22.8021 23.6979 22.2812 23.4688L20.4062 22.6562C20.1771 22.8229 19.9375 22.9792 19.6875 23.125C19.4375 23.2708 19.1875 23.3958 18.9375 23.5L18.6562 25.5625C18.5729 26.1042 18.3281 26.5625 17.9218 26.9375C17.5156 27.3125 17.0312 27.5 16.4687 27.5H13.5312ZM15.0625 19.375C16.2708 19.375 17.3021 18.9479 18.1562 18.0938C19.0104 17.2396 19.4375 16.2083 19.4375 15C19.4375 13.7917 19.0104 12.7604 18.1562 11.9062C17.3021 11.0521 16.2708 10.625 15.0625 10.625C13.8333 10.625 12.7968 11.0521 11.9531 11.9062C11.1093 12.7604 10.6875 13.7917 10.6875 15C10.6875 16.2083 11.1093 17.2396 11.9531 18.0938C12.7968 18.9479 13.8333 19.375 15.0625 19.375Z" fill="#99A1AF"/>
</g>
</svg>
