<svg width="14" height="14" viewBox="0 0 14 14" fill="none" xmlns="http://www.w3.org/2000/svg">
<path d="M7.00005 8.34609L2.10005 13.2461C1.91672 13.4294 1.68338 13.5211 1.40005 13.5211C1.11672 13.5211 0.883382 13.4294 0.700049 13.2461C0.516715 13.0628 0.425049 12.8294 0.425049 12.5461C0.425049 12.2628 0.516715 12.0294 0.700049 11.8461L5.60005 6.94609L0.700049 2.04609C0.516715 1.86276 0.425049 1.62943 0.425049 1.34609C0.425049 1.06276 0.516715 0.829427 0.700049 0.646094C0.883382 0.46276 1.11672 0.371094 1.40005 0.371094C1.68338 0.371094 1.91672 0.46276 2.10005 0.646094L7.00005 5.54609L11.9 0.646094C12.0834 0.46276 12.3167 0.371094 12.6 0.371094C12.8834 0.371094 13.1167 0.46276 13.3 0.646094C13.4834 0.829427 13.575 1.06276 13.575 1.34609C13.575 1.62943 13.4834 1.86276 13.3 2.04609L8.40005 6.94609L13.3 11.8461C13.4834 12.0294 13.575 12.2628 13.575 12.5461C13.575 12.8294 13.4834 13.0628 13.3 13.2461C13.1167 13.4294 12.8834 13.5211 12.6 13.5211C12.3167 13.5211 12.0834 13.4294 11.9 13.2461L7.00005 8.34609Z" fill="#64748B"/>
</svg>
