<svg width="221" height="46" viewBox="0 0 221 46" fill="none" xmlns="http://www.w3.org/2000/svg">
<path d="M16.4 11.6333L15.2444 13.6778L9.73333 10.4333V16.7H7.51111V10.4778L2 13.6778L0.888889 11.6333L6.35556 8.56667L0.888889 5.5L2 3.5L7.51111 6.7V0.477777H9.73333V6.7L15.2444 3.5L16.4 5.5L10.9333 8.56667L16.4 11.6333ZM153.4 28.06C156.2 28.34 158 29.06 158 32.22C158 36.5 152.12 37.14 148.08 37.1C144.68 37.06 142.68 34.74 142.4 31.74C141.64 24.14 141.64 15.78 142.4 8.22C142.68 5.26 144.36 2.9 147.76 2.9C151.04 2.9 152.72 5.26 153 8.22C153.6 14.06 153.8 21.98 153.4 28.06ZM163.109 25.18C163.149 17.38 168.269 11.82 176.149 11.82C184.109 11.82 187.909 18.58 187.909 25.18C187.829 31.86 183.149 37.78 176.029 37.78C168.589 37.78 163.109 32.38 163.109 25.18ZM174.309 27.42C173.989 28.02 175.149 28.62 175.709 27.86C176.789 26.26 177.069 24.1 177.109 22.1C177.149 21.18 175.789 21.22 175.749 21.9C175.589 23.86 175.269 25.5 174.309 27.42ZM211.599 11.82L213.679 9.9C215.319 8.38 217.399 8.7 218.879 10.46C220.279 12.18 220.279 14.1 218.799 15.74L218.359 16.26C218.319 16.74 219.239 17.26 219.239 20.38C219.239 24.06 217.919 27.82 214.399 29.58C212.599 28.86 210.479 28.34 207.879 28.3C206.879 28.3 206.799 29.42 207.799 29.42C216.039 29.82 219.719 34.38 218.839 38.54C218.079 42.06 213.919 45.3 206.399 45.3C198.439 45.3 194.919 41.78 194.279 37.86C193.759 34.46 195.359 30.7 198.279 28.5C195.439 26.78 194.239 23.06 195.039 19.54C195.959 15.34 199.839 11.38 207.399 11.38C208.719 11.38 209.919 11.54 211.599 11.82ZM206.159 22.18C205.839 22.78 206.999 23.34 207.519 22.62C208.639 21.1 208.799 18.9 208.879 16.94C208.879 15.98 207.599 16.02 207.559 16.7C207.439 18.62 207.079 20.3 206.159 22.18ZM205.839 39.54C205.559 40.18 206.679 40.7 207.159 39.98C208.239 38.46 208.479 36.26 208.559 34.34C208.559 33.42 207.239 33.42 207.199 34.1C207.079 36.02 206.799 37.66 205.839 39.54Z" fill="#5EA500"/>
<path d="M48.5934 33.7222C46.4008 33.7222 44.4156 33.2185 42.6378 32.2111C40.8897 31.1741 39.5119 29.7519 38.5045 27.9444C37.5267 26.137 37.0378 24.0778 37.0378 21.7667C37.0378 19.4852 37.5267 17.4407 38.5045 15.6333C39.5119 13.8259 40.8897 12.4185 42.6378 11.4111C44.4156 10.4037 46.4008 9.9 48.5934 9.9C50.5193 9.9 52.2527 10.3 53.7934 11.1C55.3341 11.9 56.549 13.0704 57.4378 14.6111L54.949 16.2111C54.2082 15.0852 53.2749 14.2407 52.149 13.6778C51.0527 13.0852 49.8527 12.7889 48.549 12.7889C46.9786 12.7889 45.5564 13.1593 44.2823 13.9C43.0378 14.6407 42.0601 15.6926 41.349 17.0556C40.6378 18.4185 40.2823 19.9889 40.2823 21.7667C40.2823 23.5741 40.6378 25.1593 41.349 26.5222C42.0601 27.8852 43.0378 28.937 44.2823 29.6778C45.5564 30.4185 46.9786 30.7889 48.549 30.7889C49.8823 30.7889 51.0971 30.5074 52.1934 29.9444C53.2897 29.3815 54.2082 28.5222 54.949 27.3667L57.4378 29.0111C56.5193 30.5222 55.2897 31.6926 53.749 32.5222C52.2378 33.3222 50.5193 33.7222 48.5934 33.7222ZM78.5063 9.9C81.2914 9.9 83.4988 10.7593 85.1285 12.4778C86.7581 14.1667 87.5729 16.6407 87.5729 19.9V33.5H84.3729V20.3C84.3729 17.8704 83.7951 16.0333 82.6396 14.7889C81.5137 13.5148 79.8988 12.8778 77.7951 12.8778C75.4544 12.8778 73.5877 13.6333 72.1951 15.1444C70.8322 16.6259 70.1507 18.6556 70.1507 21.2333V33.5H66.9507V0.522221H70.1507V14.5222C70.9507 13.0407 72.0618 11.9 73.484 11.1C74.9359 10.3 76.61 9.9 78.5063 9.9ZM108.646 33.7222C106.483 33.7222 104.527 33.2185 102.779 32.2111C101.061 31.1741 99.6979 29.7519 98.6904 27.9444C97.7127 26.137 97.2238 24.0778 97.2238 21.7667C97.2238 19.4852 97.7127 17.4407 98.6904 15.6333C99.6979 13.8259 101.061 12.4185 102.779 11.4111C104.527 10.4037 106.483 9.9 108.646 9.9C110.779 9.9 112.705 10.4037 114.424 11.4111C116.172 12.4185 117.535 13.8259 118.513 15.6333C119.49 17.4407 119.979 19.4852 119.979 21.7667C119.979 24.0778 119.49 26.137 118.513 27.9444C117.535 29.7519 116.172 31.1741 114.424 32.2111C112.705 33.2185 110.779 33.7222 108.646 33.7222ZM108.646 30.7889C110.187 30.7889 111.565 30.4185 112.779 29.6778C114.024 28.937 115.002 27.8852 115.713 26.5222C116.424 25.1296 116.779 23.5444 116.779 21.7667C116.779 20.0185 116.424 18.463 115.713 17.1C115.002 15.737 114.024 14.6852 112.779 13.9444C111.565 13.1741 110.187 12.7889 108.646 12.7889C107.076 12.7889 105.668 13.1741 104.424 13.9444C103.209 14.6852 102.246 15.737 101.535 17.1C100.824 18.463 100.468 20.0185 100.468 21.7667C100.468 23.5444 100.809 25.1296 101.49 26.5222C102.202 27.8852 103.179 28.937 104.424 29.6778C105.668 30.4185 107.076 30.7889 108.646 30.7889ZM130.943 10.9222C130.232 10.9222 129.639 10.6852 129.165 10.2111C128.691 9.73704 128.454 9.14444 128.454 8.43333C128.454 7.72222 128.691 7.14444 129.165 6.7C129.639 6.22592 130.232 5.98889 130.943 5.98889C131.654 5.98889 132.247 6.22592 132.721 6.7C133.195 7.14444 133.432 7.72222 133.432 8.43333C133.432 9.14444 133.195 9.73704 132.721 10.2111C132.247 10.6852 131.654 10.9222 130.943 10.9222ZM130.943 29.9C130.262 29.9 129.669 29.663 129.165 29.1889C128.691 28.7148 128.454 28.1222 128.454 27.4111C128.454 26.7 128.691 26.1074 129.165 25.6333C129.669 25.1593 130.262 24.9222 130.943 24.9222C131.625 24.9222 132.202 25.1593 132.676 25.6333C133.18 26.1074 133.432 26.7 133.432 27.4111C133.432 28.1222 133.18 28.7148 132.676 29.1889C132.202 29.663 131.625 29.9 130.943 29.9Z" fill="#6B7280"/>
</svg>
