<svg width="259" height="170" viewBox="0 0 259 170" fill="none" xmlns="http://www.w3.org/2000/svg">
<path d="M98.6761 90.2C96.7028 90.2 94.9161 89.7467 93.3161 88.84C91.7428 87.9067 90.5028 86.6267 89.5961 85C88.7161 83.3733 88.2761 81.52 88.2761 79.44C88.2761 77.3867 88.7161 75.5467 89.5961 73.92C90.5028 72.2933 91.7428 71.0267 93.3161 70.12C94.9161 69.2133 96.7028 68.76 98.6761 68.76C100.409 68.76 101.969 69.12 103.356 69.84C104.743 70.56 105.836 71.6133 106.636 73L104.396 74.44C103.729 73.4267 102.889 72.6667 101.876 72.16C100.889 71.6267 99.8094 71.36 98.6361 71.36C97.2228 71.36 95.9428 71.6933 94.7961 72.36C93.6761 73.0267 92.7961 73.9733 92.1561 75.2C91.5161 76.4267 91.1961 77.84 91.1961 79.44C91.1961 81.0667 91.5161 82.4933 92.1561 83.72C92.7961 84.9467 93.6761 85.8933 94.7961 86.56C95.9428 87.2267 97.2228 87.56 98.6361 87.56C99.8361 87.56 100.929 87.3067 101.916 86.8C102.903 86.2933 103.729 85.52 104.396 84.48L106.636 85.96C105.809 87.32 104.703 88.3733 103.316 89.12C101.956 89.84 100.409 90.2 98.6761 90.2ZM121.278 68.76C123.784 68.76 125.771 69.5333 127.238 71.08C128.704 72.6 129.438 74.8267 129.438 77.76V90H126.558V78.12C126.558 75.9333 126.038 74.28 124.998 73.16C123.984 72.0133 122.531 71.44 120.638 71.44C118.531 71.44 116.851 72.12 115.598 73.48C114.371 74.8133 113.758 76.64 113.758 78.96V90H110.878V60.32H113.758V72.92C114.478 71.5867 115.478 70.56 116.758 69.84C118.064 69.12 119.571 68.76 121.278 68.76ZM144.083 90.2C142.137 90.2 140.377 89.7467 138.803 88.84C137.257 87.9067 136.03 86.6267 135.123 85C134.243 83.3733 133.803 81.52 133.803 79.44C133.803 77.3867 134.243 75.5467 135.123 73.92C136.03 72.2933 137.257 71.0267 138.803 70.12C140.377 69.2133 142.137 68.76 144.083 68.76C146.003 68.76 147.737 69.2133 149.283 70.12C150.857 71.0267 152.083 72.2933 152.963 73.92C153.843 75.5467 154.283 77.3867 154.283 79.44C154.283 81.52 153.843 83.3733 152.963 85C152.083 86.6267 150.857 87.9067 149.283 88.84C147.737 89.7467 146.003 90.2 144.083 90.2ZM144.083 87.56C145.47 87.56 146.71 87.2267 147.803 86.56C148.923 85.8933 149.803 84.9467 150.443 83.72C151.083 82.4667 151.403 81.04 151.403 79.44C151.403 77.8667 151.083 76.4667 150.443 75.24C149.803 74.0133 148.923 73.0667 147.803 72.4C146.71 71.7067 145.47 71.36 144.083 71.36C142.67 71.36 141.403 71.7067 140.283 72.4C139.19 73.0667 138.323 74.0133 137.683 75.24C137.043 76.4667 136.723 77.8667 136.723 79.44C136.723 81.04 137.03 82.4667 137.643 83.72C138.283 84.9467 139.163 85.8933 140.283 86.56C141.403 87.2267 142.67 87.56 144.083 87.56ZM167.741 69.68C167.101 69.68 166.568 69.4667 166.141 69.04C165.714 68.6133 165.501 68.08 165.501 67.44C165.501 66.8 165.714 66.28 166.141 65.88C166.568 65.4533 167.101 65.24 167.741 65.24C168.381 65.24 168.914 65.4533 169.341 65.88C169.768 66.28 169.981 66.8 169.981 67.44C169.981 68.08 169.768 68.6133 169.341 69.04C168.914 69.4667 168.381 69.68 167.741 69.68ZM167.741 86.76C167.128 86.76 166.594 86.5467 166.141 86.12C165.714 85.6933 165.501 85.16 165.501 84.52C165.501 83.88 165.714 83.3467 166.141 82.92C166.594 82.4933 167.128 82.28 167.741 82.28C168.354 82.28 168.874 82.4933 169.301 82.92C169.754 83.3467 169.981 83.88 169.981 84.52C169.981 85.16 169.754 85.6933 169.301 86.12C168.874 86.5467 168.354 86.76 167.741 86.76Z" fill="#6B7280"/>
<path d="M109.364 127.104C111.884 127.356 113.504 128.004 113.504 130.848C113.504 134.7 108.212 135.276 104.576 135.24C101.516 135.204 99.7163 133.116 99.4643 130.416C98.7803 123.576 98.7803 116.052 99.4643 109.248C99.7163 106.584 101.228 104.46 104.288 104.46C107.24 104.46 108.752 106.584 109.004 109.248C109.544 114.504 109.724 121.632 109.364 127.104ZM113.783 124.512C113.819 117.492 118.427 112.488 125.519 112.488C132.683 112.488 136.103 118.572 136.103 124.512C136.031 130.524 131.819 135.852 125.411 135.852C118.715 135.852 113.783 130.992 113.783 124.512ZM123.863 126.528C123.575 127.068 124.619 127.608 125.123 126.924C126.095 125.484 126.347 123.54 126.383 121.74C126.419 120.912 125.195 120.948 125.159 121.56C125.015 123.324 124.727 124.8 123.863 126.528ZM153.104 112.488L154.976 110.76C156.452 109.392 158.324 109.68 159.656 111.264C160.916 112.812 160.916 114.54 159.584 116.016L159.188 116.484C159.152 116.916 159.98 117.384 159.98 120.192C159.98 123.504 158.792 126.888 155.624 128.472C154.004 127.824 152.096 127.356 149.756 127.32C148.856 127.32 148.784 128.328 149.684 128.328C157.1 128.688 160.412 132.792 159.62 136.536C158.936 139.704 155.192 142.62 148.424 142.62C141.26 142.62 138.092 139.452 137.516 135.924C137.048 132.864 138.488 129.48 141.116 127.5C138.56 125.952 137.48 122.604 138.2 119.436C139.028 115.656 142.52 112.092 149.324 112.092C150.512 112.092 151.592 112.236 153.104 112.488ZM148.208 121.812C147.92 122.352 148.964 122.856 149.432 122.208C150.44 120.84 150.584 118.86 150.656 117.096C150.656 116.232 149.504 116.268 149.468 116.88C149.36 118.608 149.036 120.12 148.208 121.812ZM147.92 137.436C147.668 138.012 148.676 138.48 149.108 137.832C150.08 136.464 150.296 134.484 150.368 132.756C150.368 131.928 149.18 131.928 149.144 132.54C149.036 134.268 148.784 135.744 147.92 137.436Z" fill="#5EA500"/>
<path d="M203.438 112.75L201.312 116.469L192.531 110.656L193.25 121.344H188.781L189.469 110.656L180.5 116.469L178.531 112.812L188.125 108.094L178.531 103.281L180.688 99.625L189.531 105.531L188.781 94.8438H193.25L192.469 105.531L201.312 99.5625L203.5 103.406L193.875 108.156L203.438 112.75Z" fill="#7CCF00"/>
</svg>
