<svg width="30" height="30" viewBox="0 0 30 30" fill="none" xmlns="http://www.w3.org/2000/svg">
<g id="Frame">
<path id="Vector" d="M11.25 22.5H18.75C19.1042 22.5 19.401 22.3802 19.6406 22.1406C19.8802 21.901 20 21.6042 20 21.25C20 20.8958 19.8802 20.599 19.6406 20.3594C19.401 20.1198 19.1042 20 18.75 20H11.25C10.8958 20 10.599 20.1198 10.3594 20.3594C10.1198 20.599 10 20.8958 10 21.25C10 21.6042 10.1198 21.901 10.3594 22.1406C10.599 22.3802 10.8958 22.5 11.25 22.5ZM11.25 17.5H18.75C19.1042 17.5 19.401 17.3802 19.6406 17.1406C19.8802 16.901 20 16.6042 20 16.25C20 15.8958 19.8802 15.599 19.6406 15.3594C19.401 15.1198 19.1042 15 18.75 15H11.25C10.8958 15 10.599 15.1198 10.3594 15.3594C10.1198 15.599 10 15.8958 10 16.25C10 16.6042 10.1198 16.901 10.3594 17.1406C10.599 17.3802 10.8958 17.5 11.25 17.5ZM7.5 27.5C6.8125 27.5 6.22396 27.2552 5.73438 26.7656C5.24479 26.276 5 25.6875 5 25V5C5 4.3125 5.24479 3.72396 5.73438 3.23438C6.22396 2.74479 6.8125 2.5 7.5 2.5H16.4688C16.8021 2.5 17.1198 2.5625 17.4219 2.6875C17.724 2.8125 17.9896 2.98958 18.2188 3.21875L24.2812 9.28125C24.5104 9.51042 24.6875 9.77604 24.8125 10.0781C24.9375 10.3802 25 10.6979 25 11.0312V25C25 25.6875 24.7552 26.276 24.2656 26.7656C23.776 27.2552 23.1875 27.5 22.5 27.5H7.5ZM16.25 10C16.25 10.3542 16.3698 10.651 16.6094 10.8906C16.849 11.1302 17.1458 11.25 17.5 11.25H22.5L16.25 5V10Z" fill="#99A1AF"/>
</g>
</svg>
