<svg width="16" height="16" viewBox="0 0 16 16" fill="none" xmlns="http://www.w3.org/2000/svg">
<path d="M5.83171 11.2796C4.31782 11.2796 3.03657 10.7553 1.98796 9.70671C0.939345 8.6581 0.415039 7.37685 0.415039 5.86296C0.415039 4.34907 0.939345 3.06782 1.98796 2.01921C3.03657 0.970595 4.31782 0.446289 5.83171 0.446289C7.3456 0.446289 8.62685 0.970595 9.67546 2.01921C10.7241 3.06782 11.2484 4.34907 11.2484 5.86296C11.2484 6.47407 11.1512 7.05046 10.9567 7.59212C10.7623 8.13379 10.4984 8.61296 10.165 9.02962L14.8317 13.6963C14.9845 13.8491 15.0609 14.0435 15.0609 14.2796C15.0609 14.5157 14.9845 14.7102 14.8317 14.863C14.6789 15.0157 14.4845 15.0921 14.2484 15.0921C14.0123 15.0921 13.8178 15.0157 13.665 14.863L8.99837 10.1963C8.58171 10.5296 8.10254 10.7935 7.56087 10.988C7.01921 11.1824 6.44282 11.2796 5.83171 11.2796ZM5.83171 9.61296C6.87337 9.61296 7.75879 9.24837 8.48796 8.51921C9.21712 7.79004 9.58171 6.90462 9.58171 5.86296C9.58171 4.82129 9.21712 3.93587 8.48796 3.20671C7.75879 2.47754 6.87337 2.11296 5.83171 2.11296C4.79004 2.11296 3.90462 2.47754 3.17546 3.20671C2.44629 3.93587 2.08171 4.82129 2.08171 5.86296C2.08171 6.90462 2.44629 7.79004 3.17546 8.51921C3.90462 9.24837 4.79004 9.61296 5.83171 9.61296Z" fill="#64748B"/>
</svg>
